# xmcd
#
# Track frame offsets:
#	150
#	47908
#	82911
#	117391
#	144493
#
# Disc length: 2496 seconds
#
# Revision: 1
# Processed by: cddbd v1.4PL0 Copyright (c) Steve Scherf et al.
# Submitted via: audiograbber 1.82.02
#
DISCID=3d09be05
DTITLE=Ten Years After - Undead
DYEAR=1900
DGENRE=Blues
TTITLE0=Ten Years After - I May Be Wrong, But I Won't Be Wrong Always
TTITLE1=Ten Years After - Woodchoppers Ball
TTITLE2=Ten Years After - Spider In My Web
TTITLE3=Ten Years After - Summertime (Into Shantung Cabbage)
TTITLE4=Ten Years After - I'm Going Home
EXTD=
EXTT0=
EXTT1=
EXTT2=
EXTT3=
EXTT4=
PLAYORDER=
